<?xml version="1.0" standalone="no"?>
<!DOCTYPE svg PUBLIC "-//W3C//DTD SVG 20010904//EN"
 "http://www.w3.org/TR/2001/REC-SVG-20010904/DTD/svg10.dtd">
<svg version="1.0" xmlns="http://www.w3.org/2000/svg"
 width="260.000000pt" height="260.000000pt" viewBox="0 0 260.000000 260.000000"
 preserveAspectRatio="xMidYMid meet">
<metadata>
Created by potrace 1.14, written by Peter Selinger 2001-2017
</metadata>
<g transform="translate(0.000000,260.000000) scale(0.100000,-0.100000)"
fill="#000000" stroke="none">
<path d="M1095 2484 c-152 -27 -321 -93 -451 -176 -97 -62 -220 -175 -283
-258 -14 -19 -34 -44 -43 -54 -10 -11 -18 -25 -18 -32 0 -7 -4 -14 -9 -16 -7
-3 -108 -184 -109 -198 0 -3 -5 -17 -11 -32 -21 -55 -53 -190 -54 -225 -1 -13
-3 -23 -7 -23 -3 0 -6 -24 -7 -53 -1 -28 -3 -82 -5 -120 -2 -37 -1 -67 2 -67
3 0 6 -17 6 -37 1 -34 4 -58 19 -145 9 -49 57 -193 67 -199 5 -3 9 -9 8 -13
-7 -25 88 -189 165 -286 86 -108 247 -244 345 -292 14 -7 27 -15 30 -19 6 -6
159 -71 175 -73 5 -1 15 -5 21 -8 5 -4 57 -16 115 -28 152 -31 380 -31 504 0
22 6 51 13 64 16 13 3 32 9 43 15 10 5 23 7 28 4 6 -3 10 -2 10 3 0 6 11 13
25 16 37 9 197 88 215 106 3 3 29 21 57 40 29 19 53 38 53 43 0 4 4 7 10 7 18
0 200 191 200 210 0 5 4 10 8 12 5 2 27 35 50 73 23 39 45 75 49 80 4 6 9 17
11 25 2 8 8 18 14 21 5 3 9 9 8 13 -1 3 8 31 19 61 12 31 28 86 37 123 9 37
21 72 26 79 5 7 5 14 -1 17 -7 5 -7 15 0 33 5 15 8 32 5 39 -3 8 -2 16 3 18 9
6 6 247 -5 296 -4 19 -8 44 -9 55 -1 11 -5 27 -8 35 -2 8 -13 44 -22 80 -26
96 -119 280 -187 370 -112 148 -269 277 -438 361 -73 36 -205 83 -265 94 -141
27 -333 31 -460 9z m427 -93 c53 -11 107 -25 120 -30 26 -10 49 -18 61 -19 13
-2 187 -94 200 -105 6 -7 30 -24 53 -39 48 -31 194 -168 194 -181 0 -5 8 -17
18 -26 23 -20 82 -106 82 -119 0 -6 4 -12 9 -14 12 -5 75 -143 99 -218 20 -62
24 -81 39 -160 12 -66 6 -400 -8 -400 -3 0 -6 -6 -7 -12 0 -7 -3 -24 -7 -38
-3 -14 -8 -35 -11 -46 -14 -72 -123 -288 -169 -338 -11 -12 -32 -38 -47 -58
-26 -35 -49 -58 -120 -124 -52 -49 -235 -167 -278 -180 -3 0 -21 -7 -40 -15
-19 -7 -38 -12 -42 -11 -5 1 -8 -2 -8 -6 0 -5 -6 -9 -12 -9 -7 -1 -51 -11 -98
-23 -140 -37 -374 -35 -527 4 -13 3 -32 8 -43 10 -11 3 -26 8 -33 13 -6 4 -21
9 -31 10 -43 7 -229 109 -274 151 -7 6 -17 12 -21 12 -11 0 -150 137 -196 193
-21 27 -50 67 -64 90 -13 23 -29 45 -35 49 -6 4 -8 8 -4 8 4 0 -3 20 -17 44
-30 54 -68 154 -84 221 -21 91 -23 100 -28 150 -10 93 -4 274 11 340 41 177
131 372 220 476 17 19 40 46 52 60 41 48 135 129 190 166 11 7 36 24 57 38 46
31 168 87 217 101 117 32 174 45 224 52 103 13 255 6 358 -17z"/>
<path d="M1235 1878 c-102 -36 -125 -43 -165 -53 -8 -2 -17 -4 -20 -5 -3 -1
-8 -2 -12 -1 -5 0 -8 -4 -8 -10 0 -6 -6 -9 -14 -6 -7 3 -17 2 -22 -3 -5 -4
-63 -25 -129 -45 -66 -21 -124 -41 -130 -45 -5 -4 -23 -10 -39 -14 -28 -7 -28
-8 -22 -59 3 -29 8 -86 11 -127 3 -41 8 -91 11 -110 8 -51 16 -158 17 -207 0
-24 3 -43 7 -43 3 0 5 -12 4 -27 -1 -16 3 -38 7 -50 6 -16 5 -23 -4 -23 -7 0
-8 -3 -2 -8 6 -4 11 -23 12 -42 2 -50 12 -165 13 -165 1 0 3 -27 5 -60 2 -33
4 -60 5 -60 1 0 4 -27 7 -60 2 -33 5 -60 6 -61 2 -1 292 94 292 96 0 0 189 63
420 140 231 77 427 143 435 147 8 3 23 8 33 10 10 2 27 8 38 14 21 11 21 35 3
214 -3 33 -7 77 -7 98 -1 20 -4 37 -7 37 -3 0 -5 19 -6 43 -1 23 -4 71 -8 107
-4 36 -9 88 -11 115 -2 28 -7 73 -10 100 -9 77 -11 101 -13 150 -2 54 -1 54
-132 11 -47 -15 -92 -29 -100 -31 -8 -2 -16 -4 -17 -5 -2 -2 -7 -3 -12 -4 -5
0 -13 -4 -17 -8 -16 -16 -56 -6 -163 41 -61 28 -118 49 -128 48 -10 -1 -67
-18 -128 -39z m175 -57 c8 -11 184 -81 202 -81 9 0 20 5 23 10 4 6 12 10 18 9
7 -1 21 1 32 5 78 30 95 35 95 30 0 -3 6 -2 13 3 6 4 14 8 17 9 3 0 13 4 23 9
10 4 20 5 23 3 6 -7 16 -90 18 -155 0 -29 3 -53 6 -53 3 0 6 -15 6 -32 0 -18
4 -64 8 -103 4 -38 9 -88 11 -110 1 -22 6 -69 9 -105 3 -36 8 -95 11 -131 l5
-66 -88 -28 c-48 -16 -91 -30 -97 -31 -5 -1 -34 -11 -63 -23 -30 -12 -58 -19
-63 -16 -5 4 -9 2 -9 -3 0 -5 -28 -17 -62 -27 -35 -10 -74 -22 -88 -27 -14 -5
-27 -10 -30 -10 -3 0 -27 -9 -55 -20 -27 -11 -58 -22 -68 -23 -15 -3 -137 -44
-187 -62 -110 -41 -271 -89 -275 -82 -6 9 -11 51 -21 159 -7 90 -12 135 -19
205 -3 33 -8 78 -10 100 -2 22 -6 65 -9 95 -19 190 -20 186 11 198 15 6 42 14
58 18 17 4 35 10 40 15 10 7 56 19 83 21 6 1 12 5 12 10 0 4 5 8 12 8 21 0
188 54 188 61 0 12 -54 29 -82 27 -16 -1 -28 -5 -28 -9 0 -3 -6 -6 -12 -7 -19
-1 -40 -7 -178 -51 -68 -22 -125 -39 -126 -38 -7 8 -12 94 -6 103 5 8 466 169
515 180 4 1 8 2 10 4 1 1 9 3 19 5 9 2 24 8 35 13 17 11 63 6 73 -7z"/>
<path d="M1422 1569 c-33 -12 -78 -78 -97 -140 l-19 -60 -40 6 c-69 11 -81 11
-88 0 -14 -18 -8 -23 35 -31 23 -4 45 -9 50 -10 4 -1 13 -2 20 -3 9 -1 12 -11
9 -31 -4 -28 -13 -35 -37 -30 -29 6 -85 6 -94 1 -21 -14 9 -34 58 -39 59 -5
61 -11 35 -102 -8 -30 -17 -64 -19 -75 -6 -23 -37 -67 -51 -72 -6 -2 -21 6
-34 17 -27 23 -50 26 -50 6 0 -49 81 -61 135 -21 33 26 84 126 88 173 0 12 5
22 9 22 4 0 7 3 7 8 -4 24 2 32 19 25 9 -5 37 -8 62 -8 34 0 45 4 48 18 3 13
-4 17 -27 18 -17 1 -35 3 -41 4 -5 1 -19 3 -31 4 -17 1 -19 6 -16 34 4 35 16
38 84 24 26 -5 35 -3 43 13 11 21 5 24 -68 34 -19 3 -36 7 -39 9 -2 3 3 34 13
69 31 114 60 142 104 98 27 -27 40 -25 40 5 0 37 -53 54 -108 34z"/>
<path d="M649 1196 c-3 -3 -14 -7 -25 -9 -10 -2 -26 -7 -34 -10 -19 -9 -178
-58 -207 -64 -18 -4 -23 -12 -23 -39 0 -32 1 -33 28 -23 15 6 34 12 42 14 8 2
49 15 90 29 41 15 75 26 75 26 0 -1 27 8 60 21 6 2 8 17 5 32 -3 16 -8 26 -11
23z"/>
<path d="M600 1028 c-14 -6 -37 -17 -53 -24 -20 -9 -25 -9 -20 -1 4 7 -4 5
-17 -4 -31 -20 -34 -66 -5 -61 27 4 137 40 152 50 17 11 4 52 -16 51 -9 0 -27
-5 -41 -11z"/>
</g>
</svg>
